<mxfile host="app.diagrams.net" modified="2024-04-04T09:23:05.199Z" agent="Mozilla/5.0 (Windows NT 10.0; Win64; x64) AppleWebKit/537.36 (KHTML, like Gecko) Chrome/123.0.0.0 Safari/537.36" etag="mlCc8tQTV4U7dm-PRbIR" version="24.2.1" type="device">
  <diagram name="Page-1" id="fdoy6l8vNIo6GiZQFkzr">
    <mxGraphModel dx="1434" dy="738" grid="1" gridSize="10" guides="1" tooltips="1" connect="1" arrows="1" fold="1" page="1" pageScale="1" pageWidth="850" pageHeight="1100" math="0" shadow="0">
      <root>
        <mxCell id="0" />
        <mxCell id="1" parent="0" />
        <mxCell id="jzv1FefXpOxyZMLrYBwT-1" value="&lt;div&gt;&amp;nbsp; &amp;nbsp;Web Server&amp;nbsp; &amp;nbsp; &amp;nbsp;&lt;/div&gt;&lt;div&gt;&amp;nbsp;- Receive data&amp;nbsp; &amp;nbsp;&lt;/div&gt;&lt;div&gt;&amp;nbsp;- Provide Web API&lt;/div&gt;" style="rounded=0;whiteSpace=wrap;html=1;" vertex="1" parent="1">
          <mxGeometry x="215" y="150" width="110" height="50" as="geometry" />
        </mxCell>
        <mxCell id="jzv1FefXpOxyZMLrYBwT-26" style="edgeStyle=orthogonalEdgeStyle;rounded=0;orthogonalLoop=1;jettySize=auto;html=1;entryX=0.5;entryY=0;entryDx=0;entryDy=0;" edge="1" parent="1" source="jzv1FefXpOxyZMLrYBwT-7" target="jzv1FefXpOxyZMLrYBwT-10">
          <mxGeometry relative="1" as="geometry" />
        </mxCell>
        <mxCell id="jzv1FefXpOxyZMLrYBwT-7" value="&lt;div&gt;Sensors&lt;/div&gt;&lt;div&gt;- Soil&amp;nbsp;&lt;/div&gt;&lt;div&gt;- Temp&amp;nbsp;&lt;/div&gt;" style="rounded=0;whiteSpace=wrap;html=1;" vertex="1" parent="1">
          <mxGeometry x="170" y="500" width="60" height="50" as="geometry" />
        </mxCell>
        <mxCell id="jzv1FefXpOxyZMLrYBwT-27" style="edgeStyle=orthogonalEdgeStyle;rounded=0;orthogonalLoop=1;jettySize=auto;html=1;entryX=0.5;entryY=0;entryDx=0;entryDy=0;" edge="1" parent="1" source="jzv1FefXpOxyZMLrYBwT-8" target="jzv1FefXpOxyZMLrYBwT-12">
          <mxGeometry relative="1" as="geometry" />
        </mxCell>
        <mxCell id="jzv1FefXpOxyZMLrYBwT-8" value="Relays&#xa;- Pump  &#xa;- Valve" style="rounded=0;whiteSpace=wrap;html=1;" vertex="1" parent="1">
          <mxGeometry x="250" y="500" width="50" height="50" as="geometry" />
        </mxCell>
        <mxCell id="jzv1FefXpOxyZMLrYBwT-9" value="&lt;div&gt;&amp;nbsp; &amp;nbsp; &amp;nbsp;IP Camera&amp;nbsp;&amp;nbsp;&lt;/div&gt;&lt;div&gt;- Monitor garden&lt;/div&gt;&lt;div&gt;- Send images&amp;nbsp;&amp;nbsp;&lt;/div&gt;" style="rounded=0;whiteSpace=wrap;html=1;" vertex="1" parent="1">
          <mxGeometry x="350" y="470" width="105" height="60" as="geometry" />
        </mxCell>
        <mxCell id="jzv1FefXpOxyZMLrYBwT-10" value="Pump" style="rounded=0;whiteSpace=wrap;html=1;" vertex="1" parent="1">
          <mxGeometry x="180" y="600" width="40" height="20" as="geometry" />
        </mxCell>
        <mxCell id="jzv1FefXpOxyZMLrYBwT-12" value="Valve" style="rounded=0;whiteSpace=wrap;html=1;" vertex="1" parent="1">
          <mxGeometry x="255" y="600" width="40" height="20" as="geometry" />
        </mxCell>
        <mxCell id="jzv1FefXpOxyZMLrYBwT-20" style="edgeStyle=orthogonalEdgeStyle;rounded=0;orthogonalLoop=1;jettySize=auto;html=1;entryX=0.5;entryY=0;entryDx=0;entryDy=0;" edge="1" parent="1" source="jzv1FefXpOxyZMLrYBwT-18" target="jzv1FefXpOxyZMLrYBwT-19">
          <mxGeometry relative="1" as="geometry" />
        </mxCell>
        <mxCell id="jzv1FefXpOxyZMLrYBwT-18" value="Cloud Server" style="swimlane;whiteSpace=wrap;html=1;" vertex="1" parent="1">
          <mxGeometry x="205" y="120" width="230" height="90" as="geometry" />
        </mxCell>
        <mxCell id="jzv1FefXpOxyZMLrYBwT-2" value="&lt;div&gt;&amp;nbsp; &amp;nbsp;AI Model&amp;nbsp; &amp;nbsp; &amp;nbsp;&lt;/div&gt;&lt;div&gt;- Plant Disease&amp;nbsp;&lt;/div&gt;&lt;div&gt;&lt;span style=&quot;background-color: initial;&quot;&gt;Recognition&amp;nbsp; &amp;nbsp;&lt;/span&gt;&lt;/div&gt;" style="rounded=0;whiteSpace=wrap;html=1;" vertex="1" parent="jzv1FefXpOxyZMLrYBwT-18">
          <mxGeometry x="130" y="30" width="90" height="50" as="geometry" />
        </mxCell>
        <mxCell id="jzv1FefXpOxyZMLrYBwT-23" style="edgeStyle=orthogonalEdgeStyle;rounded=0;orthogonalLoop=1;jettySize=auto;html=1;exitX=0.25;exitY=1;exitDx=0;exitDy=0;entryX=0.5;entryY=0;entryDx=0;entryDy=0;" edge="1" parent="1" source="jzv1FefXpOxyZMLrYBwT-19" target="jzv1FefXpOxyZMLrYBwT-22">
          <mxGeometry relative="1" as="geometry">
            <Array as="points">
              <mxPoint x="235" y="410" />
            </Array>
          </mxGeometry>
        </mxCell>
        <mxCell id="jzv1FefXpOxyZMLrYBwT-24" style="edgeStyle=orthogonalEdgeStyle;rounded=0;orthogonalLoop=1;jettySize=auto;html=1;entryX=0.5;entryY=0;entryDx=0;entryDy=0;" edge="1" parent="1" source="jzv1FefXpOxyZMLrYBwT-19" target="jzv1FefXpOxyZMLrYBwT-9">
          <mxGeometry relative="1" as="geometry" />
        </mxCell>
        <mxCell id="jzv1FefXpOxyZMLrYBwT-19" value="Raspberry Pi Gateway" style="swimlane;whiteSpace=wrap;html=1;" vertex="1" parent="1">
          <mxGeometry x="160" y="260" width="320" height="150" as="geometry" />
        </mxCell>
        <mxCell id="jzv1FefXpOxyZMLrYBwT-3" value="&lt;div&gt;&amp;nbsp;MQTT Broker&amp;nbsp;&lt;/div&gt;&lt;div&gt;&amp;nbsp; - Mosquitto&lt;/div&gt;" style="rounded=0;whiteSpace=wrap;html=1;" vertex="1" parent="jzv1FefXpOxyZMLrYBwT-19">
          <mxGeometry y="65" width="90" height="40" as="geometry" />
        </mxCell>
        <mxCell id="jzv1FefXpOxyZMLrYBwT-6" value="&lt;div&gt;Local DB&lt;/div&gt;&lt;div&gt;- Store&amp;nbsp;&lt;/div&gt;&lt;div&gt;&amp;nbsp; sensor&lt;/div&gt;&lt;div&gt;&amp;nbsp; data&amp;nbsp;&amp;nbsp;&lt;/div&gt;&lt;div&gt;&lt;br&gt;&lt;/div&gt;" style="shape=cylinder3;whiteSpace=wrap;html=1;boundedLbl=1;backgroundOutline=1;size=15;" vertex="1" parent="jzv1FefXpOxyZMLrYBwT-19">
          <mxGeometry x="225" y="30" width="70" height="110" as="geometry" />
        </mxCell>
        <mxCell id="jzv1FefXpOxyZMLrYBwT-4" value="&lt;div&gt;&amp;nbsp; &amp;nbsp;Script&amp;nbsp;&amp;nbsp;&lt;/div&gt;&lt;div&gt;- Subscribe&lt;/div&gt;&lt;div&gt;&amp;nbsp;- Forward&amp;nbsp;&lt;span style=&quot;background-color: initial;&quot;&gt;images&lt;/span&gt;&lt;/div&gt;" style="rounded=0;whiteSpace=wrap;html=1;" vertex="1" parent="jzv1FefXpOxyZMLrYBwT-19">
          <mxGeometry x="110" y="65" width="100" height="50" as="geometry" />
        </mxCell>
        <mxCell id="jzv1FefXpOxyZMLrYBwT-21" value="MQTT" style="text;html=1;align=center;verticalAlign=middle;whiteSpace=wrap;rounded=0;" vertex="1" parent="1">
          <mxGeometry x="310" y="220" width="60" height="30" as="geometry" />
        </mxCell>
        <mxCell id="jzv1FefXpOxyZMLrYBwT-22" value="Adafruit Board" style="swimlane;whiteSpace=wrap;html=1;" vertex="1" parent="1">
          <mxGeometry x="160" y="470" width="150" height="90" as="geometry" />
        </mxCell>
        <mxCell id="jzv1FefXpOxyZMLrYBwT-28" value="WiFi/LoRa" style="text;html=1;align=center;verticalAlign=middle;whiteSpace=wrap;rounded=0;" vertex="1" parent="1">
          <mxGeometry x="170" y="430" width="60" height="30" as="geometry" />
        </mxCell>
      </root>
    </mxGraphModel>
  </diagram>
</mxfile>
